<svg width="207" height="44" viewBox="0 0 207 44" fill="none" xmlns="http://www.w3.org/2000/svg">
<g clip-path="url(#clip0_106_212)">
<mask id="mask0_106_212" style="mask-type:luminance" maskUnits="userSpaceOnUse" x="0" y="0" width="207" height="44">
<path d="M206.92 0H0V44H206.92V0Z" fill="white"/>
</mask>
<g mask="url(#mask0_106_212)">
<path d="M36.5641 20.3784L50.8767 3.38178C52.3853 1.59035 55.3144 2.65892 55.3144 5.00349V38.9966C55.3144 41.3412 52.3853 42.4098 50.8767 40.6184L36.5641 23.6218C35.7784 22.6852 35.7784 21.3212 36.5641 20.3846V20.3784Z" fill="#2A13AE"/>
<path opacity="0.2" d="M29.2284 37.7144H26.0856C25.2177 37.7144 24.5142 38.4179 24.5142 39.2858V42.4286C24.5142 43.2965 25.2177 44 26.0856 44H29.2284C30.0963 44 30.7999 43.2965 30.7999 42.4286V39.2858C30.7999 38.4179 30.0963 37.7144 29.2284 37.7144Z" fill="#BFBBEA"/>
<path opacity="0.4" d="M29.2284 25.1429H26.0856C25.2177 25.1429 24.5142 25.8465 24.5142 26.7143V29.8572C24.5142 30.725 25.2177 31.4286 26.0856 31.4286H29.2284C30.0963 31.4286 30.7999 30.725 30.7999 29.8572V26.7143C30.7999 25.8465 30.0963 25.1429 29.2284 25.1429Z" fill="#BFBBEA"/>
<path opacity="0.6" d="M29.2284 12.5714H26.0856C25.2177 12.5714 24.5142 13.2749 24.5142 14.1428V17.2857C24.5142 18.1536 25.2177 18.8571 26.0856 18.8571H29.2284C30.0963 18.8571 30.7999 18.1536 30.7999 17.2857V14.1428C30.7999 13.2749 30.0963 12.5714 29.2284 12.5714Z" fill="#BFBBEA"/>
<path d="M29.2284 0H26.0856C25.2177 0 24.5142 0.703553 24.5142 1.57143V4.71428C24.5142 5.58216 25.2177 6.28572 26.0856 6.28572H29.2284C30.0963 6.28572 30.7999 5.58216 30.7999 4.71428V1.57143C30.7999 0.703553 30.0963 0 29.2284 0Z" fill="#BFBBEA"/>
<path d="M18.7503 20.3784L4.43772 3.38178C2.92914 1.59035 0 2.65892 0 5.00349V38.9966C0 41.3412 2.92914 42.4098 4.43772 40.6184L18.7503 23.6218C19.536 22.6852 19.536 21.3212 18.7503 20.3846V20.3784ZM12.1503 22.4149L6.34857 29.304C5.95886 29.7692 5.19828 29.4926 5.19828 28.8829V15.0984C5.19828 14.4949 5.95257 14.2184 6.34857 14.6772L12.1503 21.5664C12.3514 21.8115 12.3514 22.1635 12.1503 22.4024V22.4149Z" fill="#40BF82"/>
<path d="M73.5302 37.444V7.4046H86.856C88.2076 7.4046 89.4706 7.68744 90.64 8.25311C91.8094 8.81886 92.8276 9.57944 93.6884 10.5349C94.5498 11.4966 95.2098 12.5651 95.6746 13.7531C96.14 14.9349 96.3724 16.148 96.3724 17.3926C96.3724 18.6371 96.1524 19.8754 95.7186 21.032C95.2786 22.1886 94.6564 23.2132 93.8335 24.0994C93.016 24.9857 92.0542 25.6709 90.9542 26.1486L97.8058 37.444H91.3756L85.1964 27.3743H79.3574V37.444H73.5178H73.5302ZM79.3698 22.2577H86.6862C87.4218 22.2577 88.0695 22.0377 88.6346 21.604C89.2004 21.164 89.6535 20.5794 89.9862 19.8503C90.3258 19.1149 90.4956 18.2977 90.4956 17.3989C90.4956 16.5 90.3004 15.6389 89.9044 14.9034C89.5084 14.168 89.0182 13.5897 88.4215 13.1686C87.8302 12.7474 87.1826 12.5337 86.4724 12.5337H79.3636V22.264L79.3698 22.2577Z" fill="#2A13AE"/>
<path d="M107.926 37.8652C106.147 37.8652 104.544 37.5635 103.104 36.9664C101.665 36.3692 100.44 35.5458 99.4207 34.496C98.4025 33.4526 97.6298 32.2584 97.0956 30.9195C96.5607 29.5806 96.2905 28.1412 96.2905 26.6075C96.2905 24.5458 96.7621 22.6412 97.7047 20.8938C98.648 19.1526 99.9865 17.7572 101.722 16.7075C103.456 15.664 105.537 15.136 107.964 15.136C110.39 15.136 112.42 15.6578 114.142 16.7075C115.864 17.7572 117.191 19.1275 118.121 20.8372C119.052 22.5406 119.516 24.4012 119.516 26.4126C119.516 26.7772 119.504 27.1166 119.472 27.4372C119.448 27.7578 119.416 28.028 119.391 28.2544H102.3C102.382 29.4109 102.702 30.3978 103.249 31.2086C103.802 32.0195 104.506 32.648 105.368 33.088C106.228 33.528 107.14 33.748 108.096 33.748C109.252 33.748 110.333 33.4715 111.332 32.9246C112.332 32.3778 113.017 31.636 113.382 30.7058L118.203 32.0572C117.694 33.1824 116.946 34.188 115.959 35.0618C114.972 35.9355 113.803 36.6206 112.445 37.1109C111.094 37.6012 109.585 37.8526 107.92 37.8526L107.926 37.8652ZM102.13 24.7092H113.721C113.608 23.6092 113.294 22.6475 112.772 21.8366C112.25 21.0258 111.565 20.3909 110.723 19.932C109.874 19.4795 108.932 19.2532 107.888 19.2532C106.844 19.2532 105.952 19.4795 105.116 19.932C104.286 20.3846 103.608 21.0195 103.086 21.8366C102.564 22.6475 102.244 23.6092 102.136 24.7092H102.13Z" fill="#2A13AE"/>
<path d="M140.63 37.8652C138.908 37.8652 137.55 37.4 136.544 36.4634C135.545 35.5332 135.042 34.3389 135.042 32.8994V15.5823C135.042 14.7086 134.942 13.9229 134.747 13.2252C134.552 12.5338 134.194 11.9806 133.691 11.572C133.182 11.1634 132.452 10.956 131.491 10.956C130.586 10.956 129.863 11.1509 129.31 11.5469C128.756 11.9429 128.367 12.4898 128.128 13.1938C127.889 13.8978 127.751 14.7338 127.726 15.6892V16.4058H131.409V20.7618H127.726V37.4314H122.056V20.7618H119.14V16.4058H122.056V14.5892C122.056 12.7538 122.42 11.2138 123.156 9.95659C123.892 8.69943 124.948 7.75034 126.33 7.10285C127.713 6.45546 129.379 6.1286 131.321 6.1286C134.54 6.1286 136.903 6.88918 138.43 8.41034C139.952 9.93143 140.712 11.9366 140.712 14.4194V30.1589C140.712 31.0892 140.869 31.7429 141.177 32.1263C141.485 32.5098 141.925 32.6983 142.491 32.6983C143.025 32.6983 143.572 32.6166 144.119 32.4468C144.672 32.2772 145.043 32.1514 145.238 32.0634L145.998 36.74C145.772 36.828 145.364 36.96 144.772 37.1486C144.182 37.3372 143.516 37.5006 142.786 37.6452C142.051 37.7898 141.334 37.8589 140.63 37.8589V37.8652Z" fill="#2A13AE"/>
<path d="M156.666 37.8652C154.886 37.8652 153.284 37.5635 151.844 36.9664C150.404 36.3692 149.179 35.5458 148.16 34.496C147.142 33.4526 146.37 32.2584 145.835 30.9195C145.3 29.5806 145.03 28.1412 145.03 26.6075C145.03 24.5458 145.502 22.6412 146.444 20.8938C147.388 19.1526 148.726 17.7572 150.462 16.7075C152.196 15.664 154.276 15.136 156.703 15.136C159.13 15.136 161.16 15.6578 162.882 16.7075C164.604 17.7572 165.93 19.1275 166.86 20.8372C167.791 22.5406 168.256 24.4012 168.256 26.4126C168.256 26.7772 168.244 27.1166 168.212 27.4372C168.187 27.7578 168.156 28.028 168.13 28.2544H151.04C151.122 29.4109 151.442 30.3978 151.988 31.2086C152.542 32.0195 153.246 32.648 154.107 33.088C154.968 33.528 155.88 33.748 156.835 33.748C157.992 33.748 159.072 33.4715 160.072 32.9246C161.072 32.3715 161.756 31.636 162.122 30.7058L166.942 32.0572C166.434 33.1824 165.686 34.188 164.698 35.0618C163.712 35.9355 162.542 36.6206 161.184 37.1109C159.834 37.6012 158.324 37.8526 156.659 37.8526L156.666 37.8652ZM150.87 24.7092H162.46C162.348 23.6092 162.034 22.6475 161.512 21.8366C160.99 21.0258 160.304 20.3909 159.462 19.932C158.614 19.4795 157.671 19.2532 156.628 19.2532C155.584 19.2532 154.686 19.4795 153.856 19.932C153.026 20.3846 152.347 21.0195 151.826 21.8366C151.304 22.6475 150.99 23.6092 150.876 24.7092H150.87Z" fill="#2A13AE"/>
<path d="M181.368 37.8653C179.532 37.8653 177.904 37.5636 176.484 36.9664C175.057 36.3693 173.838 35.527 172.826 34.4584C171.808 33.3836 171.034 32.1641 170.5 30.8001C169.966 29.4361 169.696 27.9967 169.696 26.4881C169.696 24.4516 170.16 22.5721 171.09 20.8373C172.021 19.1087 173.36 17.7258 175.108 16.695C176.854 15.6641 178.929 15.1487 181.324 15.1487C183.718 15.1487 185.78 15.6704 187.502 16.7138C189.225 17.7573 190.488 19.1276 191.312 20.8184L185.812 22.5093C185.334 21.6921 184.7 21.0636 183.908 20.6236C183.116 20.1836 182.229 19.9698 181.242 19.9698C180.198 19.9698 179.237 20.2401 178.364 20.7807C177.49 21.3213 176.792 22.0756 176.27 23.0436C175.748 24.0116 175.484 25.1618 175.484 26.4881C175.484 27.8144 175.742 28.8956 176.27 29.8887C176.792 30.8818 177.49 31.6613 178.364 32.2144C179.237 32.7676 180.212 33.0441 181.28 33.0441C181.984 33.0441 182.632 32.931 183.228 32.7047C183.82 32.4784 184.366 32.1641 184.856 31.7556C185.346 31.347 185.712 30.9007 185.938 30.423L191.438 32.1138C190.928 33.2138 190.186 34.2007 189.218 35.0744C188.244 35.9481 187.1 36.6333 185.793 37.1236C184.48 37.6138 183.008 37.8653 181.374 37.8653H181.368Z" fill="#2A13AE"/>
<path d="M206.92 36.344C206.41 36.5703 205.826 36.8029 205.166 37.0418C204.506 37.2806 203.783 37.4818 203.01 37.6326C202.236 37.7898 201.451 37.8652 200.659 37.8652C199.584 37.8652 198.616 37.6829 197.742 37.3183C196.868 36.9538 196.171 36.3754 195.649 35.5772C195.128 34.7789 194.864 33.7418 194.864 32.4532V19.7938H191.984V15.4754H194.864V8.28461H200.577V15.4754H205.228V19.7938H200.577V30.5234C200.602 31.2778 200.816 31.8246 201.212 32.1704C201.608 32.516 202.117 32.692 202.733 32.692C203.299 32.692 203.858 32.5852 204.424 32.3778C204.99 32.164 205.455 31.9754 205.82 31.8058L206.92 36.3314V36.344Z" fill="#2A13AE"/>
</g>
</g>
<defs>
<clipPath id="clip0_106_212">
<rect width="206.938" height="44" fill="white"/>
</clipPath>
</defs>
</svg>
