<svg width="165" height="48" viewBox="0 0 165 48" fill="none" xmlns="http://www.w3.org/2000/svg">
<path d="M42 28.7701C42 35.6213 32.6016 41.3249 21 41.3249C9.39836 41.3249 0 35.7926 0 28.7701C0 25.2417 2.44426 22.0902 6.38607 19.7607C5.62761 20.8504 5.20308 22.1355 5.16393 23.4604C5.16393 28.9414 12.2213 33.3775 20.9311 33.3775C29.641 33.3775 36.7672 28.9414 36.7672 23.4604C36.7535 22.1442 36.3591 20.8598 35.6311 19.7607C39.5902 22.0902 42 25.2417 42 28.7701Z" fill="#0057FF"/>
<path d="M28.3845 17.8423C28.4328 18.8359 28.2778 19.829 27.9289 20.7612C27.58 21.6935 27.0445 22.5456 26.3548 23.2658C25.6651 23.986 24.8357 24.5593 23.9167 24.9511C22.9978 25.3429 22.0084 25.5449 21.0087 25.5449C20.0089 25.5449 19.0196 25.3429 18.1007 24.9511C17.1817 24.5593 16.3522 23.986 15.6626 23.2658C14.9729 22.5456 14.4374 21.6935 14.0885 20.7612C13.7396 19.829 13.5846 18.8359 13.6329 17.8423C13.6329 12.9437 21.0001 6.6748 21.0001 6.6748C21.0001 6.6748 28.3845 12.9437 28.3845 17.8423Z" fill="#0057FF"/>
<path d="M67.878 36L62.336 27.398H59.786V36H54.618V12.404H62.642C64.2287 12.404 65.5887 12.54 66.722 12.812C67.878 13.084 68.83 13.5147 69.578 14.104C70.326 14.6933 70.87 15.464 71.21 16.416C71.5727 17.368 71.754 18.524 71.754 19.884C71.754 21.856 71.3913 23.3973 70.666 24.508C69.9633 25.6187 68.8527 26.4007 67.334 26.854L73.964 36H67.878ZM61.86 23.556C62.7213 23.556 63.458 23.5107 64.07 23.42C64.682 23.3067 65.1693 23.114 65.532 22.842C65.9173 22.57 66.1893 22.196 66.348 21.72C66.5293 21.244 66.62 20.632 66.62 19.884C66.62 19.1813 66.5293 18.6147 66.348 18.184C66.1893 17.7307 65.9173 17.3793 65.532 17.13C65.1693 16.8807 64.682 16.7107 64.07 16.62C63.458 16.5293 62.7213 16.484 61.86 16.484H59.786V23.556H61.86ZM91.9112 25.358C91.9112 25.8793 91.8886 26.378 91.8432 26.854C91.8206 27.3073 91.7866 27.6587 91.7412 27.908L79.9092 28.656C79.9999 29.9707 80.4419 30.934 81.2352 31.546C82.0286 32.158 83.2412 32.464 84.8732 32.464C85.4399 32.464 86.0179 32.43 86.6072 32.362C87.1966 32.2713 87.7632 32.1693 88.3072 32.056C88.8512 31.9427 89.3499 31.8067 89.8032 31.648C90.2792 31.4893 90.6646 31.3307 90.9592 31.172V35.048C90.6872 35.2067 90.3132 35.3653 89.8372 35.524C89.3839 35.6827 88.8512 35.8187 88.2392 35.932C87.6272 36.0453 86.9472 36.136 86.1992 36.204C85.4739 36.2947 84.7146 36.34 83.9212 36.34C82.5159 36.34 81.2579 36.1927 80.1472 35.898C79.0366 35.6033 78.0959 35.0933 77.3252 34.368C76.5772 33.6427 75.9992 32.668 75.5912 31.444C75.1832 30.22 74.9792 28.6787 74.9792 26.82C74.9792 24.9613 75.1832 23.42 75.5912 22.196C75.9992 20.972 76.5886 19.9973 77.3592 19.272C78.1299 18.5467 79.0819 18.0367 80.2152 17.742C81.3486 17.4473 82.6292 17.3 84.0572 17.3C85.6439 17.3 86.9472 17.504 87.9672 17.912C88.9872 18.2973 89.7919 18.8527 90.3812 19.578C90.9706 20.2807 91.3672 21.1307 91.5712 22.128C91.7979 23.1027 91.9112 24.1793 91.9112 25.358ZM87.4232 24.644C87.4232 24.1453 87.3779 23.6807 87.2872 23.25C87.2192 22.7967 87.0606 22.4113 86.8112 22.094C86.5846 21.754 86.2446 21.4933 85.7912 21.312C85.3606 21.108 84.7826 21.006 84.0572 21.006C83.2866 21.006 82.6406 21.0967 82.1192 21.278C81.6206 21.4367 81.2126 21.686 80.8952 22.026C80.5779 22.366 80.3399 22.808 80.1812 23.352C80.0226 23.8733 79.9319 24.4967 79.9092 25.222L87.4232 24.644ZM96.6691 17.47C96.6691 15.8833 96.8164 14.6027 97.1111 13.628C97.4284 12.6533 97.8704 11.9053 98.4371 11.384C99.0264 10.84 99.7404 10.4773 100.579 10.296C101.44 10.1147 102.426 10.024 103.537 10.024C103.854 10.024 104.16 10.0353 104.455 10.058C104.772 10.0807 105.067 10.1147 105.339 10.16V13.696C105.09 13.6507 104.863 13.628 104.659 13.628C104.478 13.6053 104.262 13.594 104.013 13.594C103.514 13.594 103.106 13.6507 102.789 13.764C102.494 13.8773 102.256 14.0927 102.075 14.41C101.894 14.7047 101.769 15.1127 101.701 15.634C101.633 16.1553 101.599 16.824 101.599 17.64H105.203V21.482H101.599V36H96.6691V21.482H93.8471V17.64H96.6691V17.47ZM114.247 32.294C114.406 32.294 114.564 32.294 114.723 32.294C114.882 32.2713 115.063 32.2373 115.267 32.192V36C114.61 36.136 113.896 36.204 113.125 36.204C112.105 36.204 111.255 36.1133 110.575 35.932C109.895 35.728 109.351 35.4333 108.943 35.048C108.535 34.6627 108.24 34.1753 108.059 33.586C107.878 32.974 107.787 32.26 107.787 31.444V10.16H112.717V30.254C112.717 31.07 112.83 31.614 113.057 31.886C113.306 32.158 113.703 32.294 114.247 32.294ZM134.146 25.358C134.146 25.8793 134.123 26.378 134.078 26.854C134.055 27.3073 134.021 27.6587 133.976 27.908L122.144 28.656C122.234 29.9707 122.676 30.934 123.47 31.546C124.263 32.158 125.476 32.464 127.108 32.464C127.674 32.464 128.252 32.43 128.842 32.362C129.431 32.2713 129.998 32.1693 130.542 32.056C131.086 31.9427 131.584 31.8067 132.038 31.648C132.514 31.4893 132.899 31.3307 133.194 31.172V35.048C132.922 35.2067 132.548 35.3653 132.072 35.524C131.618 35.6827 131.086 35.8187 130.474 35.932C129.862 36.0453 129.182 36.136 128.434 36.204C127.708 36.2947 126.949 36.34 126.156 36.34C124.75 36.34 123.492 36.1927 122.382 35.898C121.271 35.6033 120.33 35.0933 119.56 34.368C118.812 33.6427 118.234 32.668 117.826 31.444C117.418 30.22 117.214 28.6787 117.214 26.82C117.214 24.9613 117.418 23.42 117.826 22.196C118.234 20.972 118.823 19.9973 119.594 19.272C120.364 18.5467 121.316 18.0367 122.45 17.742C123.583 17.4473 124.864 17.3 126.292 17.3C127.878 17.3 129.182 17.504 130.202 17.912C131.222 18.2973 132.026 18.8527 132.616 19.578C133.205 20.2807 133.602 21.1307 133.806 22.128C134.032 23.1027 134.146 24.1793 134.146 25.358ZM129.658 24.644C129.658 24.1453 129.612 23.6807 129.522 23.25C129.454 22.7967 129.295 22.4113 129.046 22.094C128.819 21.754 128.479 21.4933 128.026 21.312C127.595 21.108 127.017 21.006 126.292 21.006C125.521 21.006 124.875 21.0967 124.354 21.278C123.855 21.4367 123.447 21.686 123.13 22.026C122.812 22.366 122.574 22.808 122.416 23.352C122.257 23.8733 122.166 24.4967 122.144 25.222L129.658 24.644ZM146.213 36.34C144.785 36.34 143.505 36.1927 142.371 35.898C141.261 35.6033 140.309 35.0933 139.515 34.368C138.745 33.6427 138.155 32.668 137.747 31.444C137.339 30.22 137.135 28.6787 137.135 26.82C137.135 24.9613 137.339 23.42 137.747 22.196C138.155 20.972 138.745 19.9973 139.515 19.272C140.309 18.5467 141.261 18.0367 142.371 17.742C143.505 17.4473 144.785 17.3 146.213 17.3C147.12 17.3 147.993 17.3567 148.831 17.47C149.67 17.5607 150.373 17.6967 150.939 17.878V22.026C149.738 21.5727 148.378 21.346 146.859 21.346C146.043 21.346 145.341 21.4367 144.751 21.618C144.162 21.7767 143.675 22.0713 143.289 22.502C142.927 22.91 142.655 23.4653 142.473 24.168C142.292 24.8707 142.201 25.7547 142.201 26.82C142.201 27.8853 142.292 28.7693 142.473 29.472C142.655 30.1747 142.938 30.73 143.323 31.138C143.709 31.546 144.196 31.8407 144.785 32.022C145.397 32.1807 146.123 32.26 146.961 32.26C147.687 32.26 148.389 32.2147 149.069 32.124C149.772 32.0107 150.452 31.8293 151.109 31.58V35.626C150.837 35.7393 150.509 35.8413 150.123 35.932C149.761 36 149.353 36.068 148.899 36.136C148.469 36.204 148.015 36.2493 147.539 36.272C147.086 36.3173 146.644 36.34 146.213 36.34ZM160.358 21.516V29.71C160.358 30.254 160.381 30.696 160.426 31.036C160.494 31.376 160.608 31.648 160.766 31.852C160.925 32.0333 161.14 32.1693 161.412 32.26C161.684 32.328 162.036 32.362 162.466 32.362C163.056 32.362 163.543 32.3167 163.928 32.226V36.034C163.566 36.0793 163.18 36.1133 162.772 36.136C162.364 36.1813 161.956 36.204 161.548 36.204C160.415 36.204 159.452 36.1133 158.658 35.932C157.888 35.7507 157.264 35.4333 156.788 34.98C156.312 34.5267 155.961 33.9033 155.734 33.11C155.53 32.3167 155.428 31.3193 155.428 30.118V21.516H153.014V17.64H155.428V13.288H160.358V17.64H164.166V21.516H160.358Z" fill="#0057FF"/>
</svg>
